<?xml version="1.0" encoding="utf-8"?>
<!-- Generator: Adobe Illustrator 19.0.0, SVG Export Plug-In . SVG Version: 6.00 Build 0)  -->
<svg version="1.0" id="Layer_1" xmlns="http://www.w3.org/2000/svg" xmlns:xlink="http://www.w3.org/1999/xlink" x="0px" y="0px"
	 viewBox="280 365 52 62" style="enable-background:new 280 365 52 62;" xml:space="preserve">
<style type="text/css">
	.st0{fill:#FFFFFF;}
</style>
<g id="Layer_1_1_">
	<path d="M285.1,407.7c3.6,3.6,6.5,9.4,8.3,13.7c1,2.1,1.6,4,2.1,5.4h30.7c0.9-2.6,2-5.8,3-8.9c1.1-3.6,2.6-8.8,2.6-12.4V394
		c0-1.4-0.5-2.7-1.5-3.7s-2.3-1.5-3.7-1.5H326c-1,0-2,0.3-2.9,0.9l-0.3,0.2v-0.3c-0.2-1.2-0.7-2.2-1.5-3c-1-1-2.3-1.5-3.7-1.5h-0.7
		c-1.1,0-2.1,0.3-3,1l-0.2,0.2l-0.1-0.3c-0.2-0.9-0.7-1.7-1.3-2.3c-1-1-2.3-1.5-3.7-1.5h-0.7c-1.1,0-2,0.3-2.9,0.9l-0.3,0.2v-12.9
		c0-1.4-0.5-2.7-1.5-3.7s-2.3-1.5-3.7-1.5h-0.7c-1.4,0-2.7,0.5-3.7,1.5s-1.5,2.3-1.5,3.7v30.5l-0.4-0.5c-0.3-0.4-0.6-0.8-0.9-1.1
		l-2.8-2.8c-1-1-2.3-1.5-3.7-1.5s-2.7,0.5-3.7,1.5l-0.4,0.4c-2,2-2,5.3,0,7.3L285.1,407.7z"/>
	<path class="st0" d="M286.5,406.2c3.1,3.1,6,8,8.8,14.4c0.6,1.5,1.6,4.2,1.6,4.2h27.6c0.8-2.4,1.8-5,2.5-7.6
		c1.1-3.7,2.5-8.7,2.5-11.8v-11.6c0-0.8-0.3-1.6-0.9-2.2c-0.6-0.6-1.4-0.9-2.3-0.9h-0.7c-0.8,0-1.6,0.3-2.2,0.9
		c-0.6,0.6-0.9,1.4-0.9,2.2v3.2c0,0.3-0.1,0.5-0.3,0.7c-0.2,0.2-0.4,0.3-0.7,0.3c-0.3,0-0.5-0.1-0.7-0.3c-0.2-0.2-0.3-0.4-0.3-0.7
		v-6.8c0-0.8-0.3-1.6-0.9-2.2c-0.6-0.6-1.4-0.9-2.3-0.9h-0.7c-0.8,0-1.6,0.3-2.2,0.9c-0.6,0.6-0.9,1.4-0.9,2.2v5.4
		c0,0.3-0.1,0.5-0.3,0.7c-0.2,0.2-0.4,0.3-0.7,0.3c-0.3,0-0.5-0.1-0.7-0.3c-0.2-0.2-0.3-0.4-0.3-0.7v-8.4c0-0.8-0.3-1.6-0.9-2.2
		c-0.6-0.6-1.4-0.9-2.3-0.9h-0.7c-0.8,0-1.6,0.3-2.2,0.9c-0.6,0.6-0.9,1.4-0.9,2.2v6.6c0,0.3-0.1,0.5-0.3,0.7
		c-0.2,0.2-0.4,0.3-0.7,0.3c-0.3,0-0.5-0.1-0.7-0.3c-0.2-0.2-0.3-0.4-0.3-0.7v-23.6c0-0.8-0.3-1.6-0.9-2.2c-0.6-0.6-1.4-0.9-2.2-0.9
		h-0.7c-0.8,0-1.6,0.3-2.2,0.9c-0.6,0.6-0.9,1.4-0.9,2.3v35.5c0,0.5-0.4,1-0.9,1c-0.6,0-1-0.4-1.1-0.9l-0.1-0.5
		c-0.1-0.3-0.2-0.8-0.4-1.4c-0.4-1-1-2.4-2.2-3.6c0,0-2.1-2-2.8-2.8c-0.9-0.9-1.9-1.1-2.4-1c-0.7,0.1-1.6,0.5-2.2,1.1l-0.5,0.5
		c-1.2,1.2-1.2,3.3,0,4.5C283,402.7,283.5,403.2,286.5,406.2z"/>
</g>
</svg>
